 <svg version="1.0" xmlns="http://www.w3.org/2000/svg" width="700.000000pt" height="700.000000pt" viewBox="0 0 700.000000 700.000000" preserveAspectRatio="xMidYMid meet">
<g transform="translate(0.000000,700.000000) scale(0.100000,-0.100000)" fill="#eeeeee" stroke="none">
<path d="M0 3500 l0 -3500 3500 0 3500 0 0 3500 0 3500 -187 0 -188 0 -24 -63
c-13 -34 -29 -75 -37 -92 -17 -38 -169 -403 -199 -475 -33 -82 -75 -182 -85
-205 -5 -11 -25 -58 -44 -105 -19 -47 -78 -188 -131 -315 -53 -126 -112 -268
-131 -315 -19 -47 -39 -94 -44 -105 -5 -11 -25 -58 -44 -105 -19 -47 -67 -161
-106 -255 -40 -93 -91 -217 -115 -275 -112 -271 -353 -849 -365 -875 -5 -11
-25 -58 -44 -105 -19 -47 -78 -188 -131 -315 -53 -126 -112 -268 -131 -315
-19 -47 -39 -94 -44 -105 -5 -11 -26 -60 -46 -110 -20 -49 -56 -135 -79 -190
-42 -100 -103 -244 -177 -425 -21 -52 -43 -104 -48 -115 -10 -22 -181 -432
-236 -565 -19 -47 -39 -94 -44 -105 -5 -11 -25 -58 -44 -105 -19 -47 -78 -188
-131 -315 -53 -126 -112 -268 -131 -315 -20 -47 -41 -97 -47 -113 -7 -15 -16
-26 -20 -24 -7 2 -46 95 -135 322 -17 44 -64 166 -105 270 -41 105 -100 253
-130 330 -30 77 -71 182 -91 233 -85 219 -111 286 -172 442 -36 91 -69 174
-74 185 -5 11 -30 74 -55 140 -26 66 -71 181 -100 255 -29 74 -69 177 -89 228
-20 50 -52 134 -72 185 -39 99 -108 276 -209 532 -35 88 -83 212 -108 275 -25
63 -65 167 -90 230 -25 63 -62 158 -82 210 -63 161 -120 307 -199 509 -43 107
-93 235 -112 285 -20 50 -60 152 -89 226 -29 74 -70 178 -90 230 -20 52 -61
156 -90 230 -29 74 -70 178 -90 230 -20 52 -65 167 -100 255 -35 88 -93 237
-130 330 -36 94 -76 194 -87 223 l-22 52 -213 0 -213 0 -2 -3377 -3 -3378
-357 -3 -358 -2 0 3380 0 3380 -140 0 -140 0 0 -3500z m1309 3047 c13 -34 56
-145 96 -247 153 -387 184 -468 220 -560 20 -52 56 -144 80 -205 24 -60 64
-164 90 -230 26 -66 75 -192 110 -280 35 -88 83 -212 108 -275 25 -63 65 -167
90 -230 25 -63 62 -158 82 -210 40 -102 109 -279 210 -535 35 -88 83 -212 108
-275 25 -63 65 -167 90 -230 25 -63 62 -158 82 -210 40 -102 109 -279 210
-535 35 -88 84 -214 110 -280 26 -66 66 -169 90 -230 24 -60 60 -153 80 -205
20 -52 56 -144 80 -205 24 -60 68 -175 99 -255 31 -80 61 -154 66 -165 5 -11
30 -74 56 -140 25 -66 70 -181 99 -255 29 -74 74 -189 100 -255 25 -66 59
-153 76 -194 16 -40 29 -80 29 -87 0 -12 -193 -14 -1252 -12 -689 2 -1252 6
-1250 11 1 4 2 1436 2 3182 0 1746 3 3175 8 3175 4 0 18 -28 31 -63z m5411
-3187 l0 -3120 -1300 0 c-1176 0 -1300 2 -1300 16 0 8 36 102 81 207 44 106
96 230 115 277 19 47 39 94 44 105 10 22 47 111 179 430 51 121 112 267 136
325 77 183 235 562 271 650 19 47 39 94 44 105 10 23 155 368 205 490 18 44
52 125 75 180 23 55 61 147 85 205 24 58 75 182 115 275 39 94 87 208 106 255
19 47 39 94 44 105 5 11 68 162 140 335 72 173 135 324 140 335 5 11 25 58 44
105 54 131 226 543 236 565 5 11 27 63 48 115 74 181 135 325 177 425 23 55
59 141 79 190 20 50 41 99 46 110 5 11 25 58 44 105 19 47 53 129 76 183 23
54 45 109 50 123 5 13 12 24 15 24 3 0 5 -1404 5 -3120z"></path>
</g>
</svg>